<?xml version="1.0" encoding="utf-8"?>
<!-- Generator: Adobe Illustrator 24.1.3, SVG Export Plug-In . SVG Version: 6.00 Build 0)  -->
<svg version="1.1" id="Layer_1" xmlns="http://www.w3.org/2000/svg" xmlns:xlink="http://www.w3.org/1999/xlink" x="0px" y="0px"
	 viewBox="0 0 200 100" style="enable-background:new 0 0 200 100;" xml:space="preserve">
<style type="text/css">
	.st0{fill-rule:evenodd;clip-rule:evenodd;fill:#000333;}
	.st1{fill-rule:evenodd;clip-rule:evenodd;fill:#FFFFFF;}
</style>
<g>
	<path class="st0" d="M53.7,28.6c3.1-3.9,7.3-4.1,7.3-4.1s0.6,3.8-2.4,7.3c-3.2,3.8-6.9,3.2-6.9,3.2S51.1,32.2,53.7,28.6z"/>
	<path class="st0" d="M52,37.8c1.5,0,4.5-2.1,8.3-2.1c6.4,0,9,4.6,9,4.6s-5,2.5-5,8.7c0,7,6.2,9.4,6.2,9.4s-4.2,12.2-10.1,12.2
		c-2.7,0-4.8-1.8-7.6-1.8c-2.9,0-5.7,1.8-7.7,1.8c-5.3,0-12-11.6-12-20.9c0-9.1,5.7-14,11.1-14C47.6,35.9,50.2,37.8,52,37.8z"/>
</g>
<g>
	<path class="st1" d="M153.7,28.6c3.1-3.9,7.3-4.1,7.3-4.1s0.6,3.8-2.4,7.3c-3.2,3.8-6.9,3.2-6.9,3.2S151.1,32.2,153.7,28.6z"/>
	<path class="st1" d="M152,37.8c1.5,0,4.5-2.1,8.3-2.1c6.4,0,9,4.6,9,4.6s-5,2.5-5,8.7c0,7,6.2,9.4,6.2,9.4s-4.3,12.2-10.2,12.2
		c-2.7,0-4.8-1.8-7.6-1.8c-2.9,0-5.7,1.8-7.6,1.8c-5.3,0-12-11.6-12-20.9c0-9.1,5.7-14,11.1-14C147.6,35.9,150.2,37.8,152,37.8z"/>
</g>
</svg>
