<?xml version="1.0" encoding="utf-8"?>
<!-- Generator: Adobe Illustrator 24.1.3, SVG Export Plug-In . SVG Version: 6.00 Build 0)  -->
<svg version="1.1" id="Layer_1" xmlns="http://www.w3.org/2000/svg" xmlns:xlink="http://www.w3.org/1999/xlink" x="0px" y="0px"
	 viewBox="0 0 391 115" style="enable-background:new 0 0 391 115;" xml:space="preserve">
<style type="text/css">
	.st0{fill:#FF3C64;}
	.st1{fill:#C3A5A5;}
	.st2{fill:#AF9191;}
</style>
<g>
	<path class="st0" d="M205.5,51.6V25.2l-10.3,19.7H191l-10.3-19.7v26.4h-7.8V11.7h8.3l11.8,22.7L205,11.7h8.3v39.9H205.5z"/>
	<path class="st0" d="M231.6,11.7h6.9l15.2,39.9h-8l-3.7-10h-14l-3.7,10h-8L231.6,11.7z M240.5,36.2L235,20.5l-5.7,15.7H240.5z"/>
	<path class="st0" d="M280.4,22.1c-0.3-0.3-0.7-0.6-1.4-1.1c-0.7-0.5-1.5-0.9-2.5-1.3c-1-0.4-2.1-0.8-3.2-1.1
		c-1.2-0.3-2.3-0.5-3.5-0.5c-2.1,0-3.7,0.4-4.8,1.2c-1.1,0.8-1.6,1.9-1.6,3.3c0,0.8,0.2,1.5,0.6,2.1c0.4,0.5,1,1,1.7,1.4
		c0.8,0.4,1.7,0.8,2.8,1.1c1.1,0.3,2.5,0.7,4,1.1c1.9,0.5,3.7,1.1,5.3,1.7c1.6,0.6,2.9,1.3,4,2.2c1.1,0.9,2,2,2.6,3.2
		c0.6,1.3,0.9,2.8,0.9,4.6c0,2.1-0.4,4-1.2,5.5c-0.8,1.5-1.9,2.7-3.3,3.7c-1.4,0.9-2.9,1.6-4.7,2.1c-1.8,0.4-3.6,0.6-5.6,0.6
		c-3,0-6-0.4-8.9-1.3c-2.9-0.9-5.5-2.2-7.9-3.8l3.4-6.7c0.3,0.3,0.9,0.8,1.8,1.3c0.9,0.5,1.9,1.1,3.1,1.6c1.2,0.5,2.5,1,4,1.4
		c1.5,0.4,3,0.6,4.5,0.6c4.3,0,6.4-1.4,6.4-4.1c0-0.9-0.2-1.6-0.7-2.2c-0.5-0.6-1.2-1.1-2.1-1.6c-0.9-0.5-2-0.9-3.3-1.2
		c-1.3-0.4-2.7-0.8-4.3-1.2c-1.9-0.5-3.6-1.1-5-1.7c-1.4-0.6-2.6-1.4-3.5-2.2c-0.9-0.8-1.6-1.8-2.1-2.9c-0.5-1.1-0.7-2.4-0.7-4
		c0-2,0.4-3.8,1.1-5.4c0.7-1.6,1.8-2.9,3.1-3.9c1.3-1,2.9-1.8,4.6-2.4c1.8-0.5,3.7-0.8,5.7-0.8c2.8,0,5.4,0.4,7.8,1.3
		c2.4,0.9,4.4,1.9,6.2,3.1L280.4,22.1z"/>
	<path class="st0" d="M319.5,18.5h-12.8v33.1h-7.7V18.5h-12.8v-6.8h33.2V18.5z"/>
	<path class="st0" d="M350.8,44.8v6.8h-27.7V11.7h27.2v6.8h-19.5v9.6h16.8v6.3h-16.8v10.4H350.8z"/>
	<path class="st0" d="M355.5,51.6V11.7h17.7c1.8,0,3.5,0.4,5.1,1.2c1.6,0.8,2.9,1.8,4,3c1.1,1.3,2,2.7,2.6,4.3c0.6,1.6,1,3.2,1,4.8
		c0,2.6-0.6,4.9-1.9,7.1c-1.3,2.1-3,3.6-5.3,4.6l9.1,15H379l-8.2-13.4h-7.6v13.4H355.5z M363.2,31.4h9.7c0.7,0,1.4-0.2,2-0.5
		c0.6-0.3,1.2-0.8,1.6-1.4c0.5-0.6,0.8-1.3,1.1-2.1c0.3-0.8,0.4-1.6,0.4-2.5c0-0.9-0.2-1.8-0.5-2.6c-0.3-0.8-0.7-1.5-1.2-2.1
		c-0.5-0.6-1.1-1-1.7-1.3c-0.7-0.3-1.3-0.5-2-0.5h-9.4V31.4z"/>
</g>
<g>
	<path class="st0" d="M174.4,107.4V72.7h14.4c1.5,0,2.9,0.3,4.1,1c1.3,0.6,2.3,1.5,3.2,2.5c0.9,1,1.6,2.2,2.1,3.5
		c0.5,1.3,0.8,2.6,0.8,4c0,1.4-0.2,2.8-0.7,4.1c-0.5,1.3-1.2,2.5-2.1,3.5c-0.9,1-1.9,1.8-3.2,2.4c-1.2,0.6-2.6,0.9-4.1,0.9h-11.2
		v12.8H174.4z M177.9,91.6H189c1,0,1.9-0.2,2.8-0.7c0.8-0.4,1.5-1,2.1-1.8c0.6-0.7,1-1.6,1.4-2.5c0.3-1,0.5-2,0.5-3
		c0-1.1-0.2-2.1-0.6-3.1c-0.4-1-0.9-1.8-1.5-2.5c-0.6-0.7-1.4-1.3-2.2-1.7c-0.9-0.4-1.8-0.6-2.7-0.6h-10.8V91.6z"/>
	<path class="st0" d="M214.4,72.7h2.9l14.4,34.7H228l-4.5-10.8H208l-4.4,10.8h-3.7L214.4,72.7z M222.8,93.8l-7-17.1l-7.1,17.1H222.8
		z"/>
	<path class="st0" d="M235.6,72.7l11.3,18.7l11.4-18.7h3.7l-13.4,21.8v12.9h-3.4v-13l-13.4-21.7H235.6z"/>
</g>
<g>
	<path class="st1" d="M66.1,26.4l47-23.8c1.2-0.7,6.4-2.6,6.4,4.7l0,105H93.7V68.3l-28,14c0,0,0,0,0,0c-8.6,3.9-11.6-2.8-11.6-7.7
		V50.4C54.1,35.6,57.7,31.3,66.1,26.4z"/>
	<path class="st1" d="M54.1,50.4v5.2l7-25.2C56.4,34.5,54.1,39.7,54.1,50.4z"/>
	<polygon class="st1" points="61.1,30.4 61.1,30.4 61.1,30.4 	"/>
	<path class="st2" d="M65.7,82.3C65.7,82.3,65.7,82.3,65.7,82.3l28-14v44.1h25.9l0-36.1L61.1,30.4c0,0,0,0,0,0l-7,25.2v19
		C54.1,79.4,57.1,86.1,65.7,82.3z"/>
	<path class="st0" d="M57.3,27L9.5,2.9C8.1,2.4,2.6,0.1,2.6,7.4l0,105h25.9V68.3l28,14c0,0,0,0,0,0c8.6,3.9,11.6-2.8,11.6-7.7V48.2
		C68.1,37.2,66.7,31.8,57.3,27z"/>
</g>
</svg>
