<?xml version="1.0" encoding="utf-8"?>
<!-- Generator: Adobe Illustrator 24.1.3, SVG Export Plug-In . SVG Version: 6.00 Build 0)  -->
<svg version="1.1" id="Layer_1" xmlns="http://www.w3.org/2000/svg" xmlns:xlink="http://www.w3.org/1999/xlink" x="0px" y="0px"
	 viewBox="0 0 238.5 63.7" style="enable-background:new 0 0 238.5 63.7;" xml:space="preserve">
<style type="text/css">
	.st0{fill:#FFFFFF;}
	.st1{fill:#F5F5FA;}
</style>
<g>
	<g>
		<polygon class="st0" points="54.5,1 42,1 24,22.2 17.9,13.4 5.3,13.2 22.5,38.9 		"/>
		<polygon class="st1" points="13.6,34.1 19.6,42.4 13.6,49.4 0.4,49.4 		"/>
		<polygon class="st1" points="32.6,34.1 42.5,49.4 29.8,49.4 25.4,42.4 		"/>
	</g>
	<rect x="109.8" y="14.2" class="st0" width="7.6" height="35.2"/>
	<circle class="st0" cx="113.6" cy="5.8" r="4.5"/>
	<path class="st0" d="M237.5,22.5v-7.6h-7.4V5.1h-7.6v9.7h-5v7.6h4.9v17.1c0,9.8,7.9,9.8,7.9,9.8h7v-7.9c0,0-2.6,0-4.9,0
		c-2.3,0-2.4-2.4-2.4-2.4V22.5H237.5z"/>
	<path class="st0" d="M213.6,44.2l-4.2-5.5c-4.8,3.9-9.2,3.5-9.2,3.5c-8.1,0-8.5-7.6-8.5-7.6h21.9c0.1-0.8,0.1-2.3,0.1-3.1
		c0-10.3-4.7-16.7-14-16.7c-9.4,0-15.2,6-15.2,17.4c0,11.6,7.4,17.4,15.2,17.4C203.9,49.5,209,48.1,213.6,44.2z M199.5,20.9
		c8,0,7.9,8.3,7.9,8.3h-15.7C191.7,21,199.5,20.9,199.5,20.9z"/>
	<path class="st0" d="M173.7,14.5v4.8c-2.1-2.8-5-4.5-8.1-4.5c-7.3,0-12,5.3-12,17.3c0,12.5,3.9,17.3,11.7,17.3
		c3.1,0,6.2-1.7,8.3-4.5V46c0,0,0.9,9.9-7.2,9.9c-2.3,0-5.4-1.7-7.7-3.8l-4.2,5.3c0,0,5.4,5.6,11.7,5.6c7.5,0,14.5-3.9,14.5-17V14.5
		H173.7z M167,42.3c-4.4,0-6.7-4.4-6.7-10.6c0-5.5,2-10.3,6.4-10.3c4.9,0,6.5,4.1,6.5,10.1C173.3,37.4,171.8,42.3,167,42.3z"/>
	<path class="st0" d="M148.5,6.1l-5-4.8l-4.4,5.3c0,0,2.1,1.9,2.8,2.6c0.8,0.7,0.7,1.5,0.7,1.5v1v2.5V19c-2.2-2.5-4.7-4.6-8.6-4.6
		c-6.9,0-12.1,6-12.1,17.5c0,12.8,5.1,17.5,12.1,17.5c3,0,6.4-1.5,8.6-4v4h6.9V14.2c0,0,0-3.9,0-4.8C149.5,7.2,148.5,6.1,148.5,6.1z
		 M135.9,42.8c-4.8,0-7.4-3.5-7.4-10.8s2.4-10.8,7.1-10.8c4.6,0,7.1,4.8,7.1,10.8C142.8,38,140.7,42.8,135.9,42.8z"/>
	<path class="st0" d="M82,24.6l5.1,24.8h8l9.9-34.5h-6.5c-1.3,4.7-6.8,24.2-6.8,24.2l-5.8-24.2h-4h-3.8l-5.9,24.6
		c0,0-5.6-19.9-6.9-24.6h-7.2L68,49.4h9.1L82,24.6"/>
</g>
</svg>
